<svg width="235" height="200" viewBox="0 0 235 200" fill="none" xmlns="http://www.w3.org/2000/svg">
<path d="M118.886 0.00548763C106.293 -0.115016 94.2428 1.75276 82.7949 5.24738L81.8308 84.5389H82.4334C91.5917 69.0541 107.92 59.1126 130.454 59.3536C165.159 59.7754 189.38 88.9976 188.597 131.475C187.995 181.484 156.182 206.007 124.971 205.645C104.727 205.404 88.6393 197.391 78.4568 178.773H77.6132L76.1672 201.91L54.1752 201.669C54.838 192.149 55.6213 177.99 55.7418 165.517L57.4891 16.635C23.507 36.8797 0.49075 73.6936 0.00873432 116.111C-0.774541 181.002 51.2229 234.205 116.114 234.988C181.006 235.771 234.208 183.774 234.991 118.883C235.775 53.9912 183.777 0.788763 118.886 0.00548763Z" fill="#FE8C12"/>
</svg>
