<svg width="14" height="15" viewBox="0 0 14 15" fill="none" xmlns="http://www.w3.org/2000/svg">
<path d="M4.16797 0.625C3.4388 0.625 2.76172 0.807292 2.13672 1.17188C1.52474 1.53646 1.03646 2.03125 0.671875 2.65625C0.307292 3.26823 0.125 3.9388 0.125 4.66797V10.332C0.125 11.0612 0.307292 11.7383 0.671875 12.3633C1.03646 12.9753 1.52474 13.4635 2.13672 13.8281C2.76172 14.1927 3.4388 14.375 4.16797 14.375H9.83203C10.5612 14.375 11.2318 14.1927 11.8438 13.8281C12.4688 13.4635 12.9635 12.9753 13.3281 12.3633C13.6927 11.7383 13.875 11.0612 13.875 10.332V4.66797C13.875 3.9388 13.6927 3.26823 13.3281 2.65625C12.9635 2.03125 12.4688 1.53646 11.8438 1.17188C11.2318 0.807292 10.5612 0.625 9.83203 0.625H4.16797ZM4.16797 1.875H9.83203C10.3398 1.875 10.8086 1.9987 11.2383 2.24609C11.668 2.49349 12.0065 2.83203 12.2539 3.26172C12.5013 3.69141 12.625 4.16016 12.625 4.66797V10.332C12.625 10.8398 12.5013 11.3086 12.2539 11.7383C12.0065 12.168 11.668 12.5065 11.2383 12.7539C10.8086 13.0013 10.3398 13.125 9.83203 13.125H4.16797C3.66016 13.125 3.19141 13.0013 2.76172 12.7539C2.33203 12.5065 1.99349 12.168 1.74609 11.7383C1.4987 11.3086 1.375 10.8398 1.375 10.332V4.66797C1.375 4.16016 1.4987 3.69141 1.74609 3.26172C1.99349 2.83203 2.33203 2.49349 2.76172 2.24609C3.19141 1.9987 3.66016 1.875 4.16797 1.875ZM10.6914 3.24219C10.5352 3.24219 10.3984 3.30078 10.2812 3.41797C10.1771 3.52214 10.125 3.65234 10.125 3.80859C10.125 3.96484 10.1771 4.10156 10.2812 4.21875C10.3984 4.32292 10.5352 4.375 10.6914 4.375C10.8477 4.375 10.9779 4.32292 11.082 4.21875C11.1992 4.10156 11.2578 3.96484 11.2578 3.80859C11.2578 3.65234 11.1992 3.52214 11.082 3.41797C10.9779 3.30078 10.8477 3.24219 10.6914 3.24219ZM7 3.75C6.32292 3.75 5.69792 3.91927 5.125 4.25781C4.55208 4.59635 4.09635 5.05208 3.75781 5.625C3.41927 6.19792 3.25 6.82292 3.25 7.5C3.25 8.17708 3.41927 8.80208 3.75781 9.375C4.09635 9.94792 4.55208 10.4036 5.125 10.7422C5.69792 11.0807 6.32292 11.25 7 11.25C7.67708 11.25 8.30208 11.0807 8.875 10.7422C9.44792 10.4036 9.90365 9.94792 10.2422 9.375C10.5807 8.80208 10.75 8.17708 10.75 7.5C10.75 6.82292 10.5807 6.19792 10.2422 5.625C9.90365 5.05208 9.44792 4.59635 8.875 4.25781C8.30208 3.91927 7.67708 3.75 7 3.75ZM7 5C7.45573 5 7.8724 5.11068 8.25 5.33203C8.64062 5.55339 8.94661 5.85938 9.16797 6.25C9.38932 6.6276 9.5 7.04427 9.5 7.5C9.5 7.95573 9.38932 8.37891 9.16797 8.76953C8.94661 9.14714 8.64062 9.44661 8.25 9.66797C7.8724 9.88932 7.45573 10 7 10C6.54427 10 6.12109 9.88932 5.73047 9.66797C5.35286 9.44661 5.05339 9.14714 4.83203 8.76953C4.61068 8.37891 4.5 7.95573 4.5 7.5C4.5 7.04427 4.61068 6.6276 4.83203 6.25C5.05339 5.85938 5.35286 5.55339 5.73047 5.33203C6.12109 5.11068 6.54427 5 7 5Z" fill="#0A0A0B"/>
</svg>
